HIERARCHY
ROOT Hips
{
	OFFSET 0.000000 100.481300 0.000000
	CHANNELS 6 Xposition Yposition Zposition Xrotation Yrotation Zrotation
	JOINT Spine
	{
		OFFSET -0.279200 12.230698 -2.892100
		CHANNELS 3 Xrotation Yrotation Zrotation
		JOINT Spine1
		{
			OFFSET -0.325700 14.269203 -3.374200
			CHANNELS 3 Xrotation Yrotation Zrotation
			JOINT Spine2
			{
				OFFSET -0.372300 16.307602 -0.352600
				CHANNELS 3 Xrotation Yrotation Zrotation
				JOINT Neck
				{
					OFFSET -0.418800 17.814194 8.416900
					CHANNELS 3 Xrotation Yrotation Zrotation
					JOINT Head
					{
						OFFSET 0.000000 7.031097 3.806800
						CHANNELS 3 Xrotation Yrotation Zrotation
						JOINT HeadTop_End
						{
							OFFSET 0.000000 24.646606 12.978600
							CHANNELS 3 Xrotation Yrotation Zrotation
							End Site
							{
								OFFSET 0.000000 27.854965 0.000000
							}
						}
					}
				}
				JOINT LeftShoulder
				{
					OFFSET 16.952999 14.495407 -7.737500
					CHANNELS 3 Xrotation Yrotation Zrotation
					JOINT LeftArm
					{
						OFFSET 9.308998 -2.777710 0.208600
						CHANNELS 3 Xrotation Yrotation Zrotation
						JOINT LeftForeArm
						{
							OFFSET 29.972298 0.000000 0.000000
							CHANNELS 3 Xrotation Yrotation Zrotation
							JOINT LeftHand
							{
								OFFSET 26.026505 0.000000 0.000000
								CHANNELS 3 Xrotation Yrotation Zrotation
								JOINT LeftHandThumb1
								{
									OFFSET 12.240501 -7.147949 9.207150
									CHANNELS 3 Xrotation Yrotation Zrotation
									JOINT LeftHandThumb2
									{
										OFFSET 4.138618 -2.389435 2.389433
										CHANNELS 3 Xrotation Yrotation Zrotation
										JOINT LeftHandThumb3
										{
											OFFSET 2.726913 -1.574387 1.574386
											CHANNELS 3 Xrotation Yrotation Zrotation
											JOINT LeftHandThumb4
											{
												OFFSET 3.941010 -2.275345 2.275342
												CHANNELS 3 Xrotation Yrotation Zrotation
												End Site
												{
													OFFSET -0.005798 5.087799 0.009903
												}
											}
										}
									}
								}
								JOINT LeftHandIndex1
								{
									OFFSET 24.424698 -1.985611 5.953459
									CHANNELS 3 Xrotation Yrotation Zrotation
									JOINT LeftHandIndex2
									{
										OFFSET 6.426697 0.000000 0.000000
										CHANNELS 3 Xrotation Yrotation Zrotation
										JOINT LeftHandIndex3
										{
											OFFSET 5.337898 0.000000 0.000000
											CHANNELS 3 Xrotation Yrotation Zrotation
											JOINT LeftHandIndex4
											{
												OFFSET 4.409401 0.000000 0.000000
												CHANNELS 3 Xrotation Yrotation Zrotation
												End Site
												{
													OFFSET 0.000000 4.409363 0.014373
												}
											}
										}
									}
								}
								JOINT LeftHandMiddle1
								{
									OFFSET 23.810104 0.000000 0.000000
									CHANNELS 3 Xrotation Yrotation Zrotation
									JOINT LeftHandMiddle2
									{
										OFFSET 7.176498 0.000000 0.000000
										CHANNELS 3 Xrotation Yrotation Zrotation
										JOINT LeftHandMiddle3
										{
											OFFSET 6.774902 0.000000 0.000000
											CHANNELS 3 Xrotation Yrotation Zrotation
											JOINT LeftHandMiddle4
											{
												OFFSET 5.403328 0.000000 0.000000
												CHANNELS 3 Xrotation Yrotation Zrotation
												End Site
												{
													OFFSET -0.027702 5.403244 0.017414
												}
											}
										}
									}
								}
								JOINT LeftHandRing1
								{
									OFFSET 22.908401 -0.839279 -6.020567
									CHANNELS 3 Xrotation Yrotation Zrotation
									JOINT LeftHandRing2
									{
										OFFSET 6.337502 0.000000 0.000000
										CHANNELS 3 Xrotation Yrotation Zrotation
										JOINT LeftHandRing3
										{
											OFFSET 5.779297 0.000000 0.000000
											CHANNELS 3 Xrotation Yrotation Zrotation
											JOINT LeftHandRing4
											{
												OFFSET 4.965698 0.000000 0.000000
												CHANNELS 3 Xrotation Yrotation Zrotation
												End Site
												{
													OFFSET 0.000000 4.965668 0.016186
												}
											}
										}
									}
								}
								JOINT LeftHandPinky1
								{
									OFFSET 20.037003 -1.530319 -10.950146
									CHANNELS 3 Xrotation Yrotation Zrotation
									JOINT LeftHandPinky2
									{
										OFFSET 5.254700 0.000000 0.000000
										CHANNELS 3 Xrotation Yrotation Zrotation
										JOINT LeftHandPinky3
										{
											OFFSET 4.810204 0.000000 0.000000
											CHANNELS 3 Xrotation Yrotation Zrotation
											JOINT LeftHandPinky4
											{
												OFFSET 3.647202 0.000000 0.000000
												CHANNELS 3 Xrotation Yrotation Zrotation
												End Site
												{
													OFFSET 0.000000 3.647186 0.011889
												}
											}
										}
									}
								}
							}
						}
					}
				}
				JOINT RightShoulder
				{
					OFFSET -15.141001 14.495407 -7.737500
					CHANNELS 3 Xrotation Yrotation Zrotation
					JOINT RightArm
					{
						OFFSET -9.308998 -2.777710 0.208500
						CHANNELS 3 Xrotation Yrotation Zrotation
						JOINT RightForeArm
						{
							OFFSET -29.972300 0.000000 0.000000
							CHANNELS 3 Xrotation Yrotation Zrotation
							JOINT RightHand
							{
								OFFSET -26.026505 0.000000 0.000000
								CHANNELS 3 Xrotation Yrotation Zrotation
								JOINT RightHandThumb1
								{
									OFFSET -12.240601 -7.148026 9.207092
									CHANNELS 3 Xrotation Yrotation Zrotation
									JOINT RightHandThumb2
									{
										OFFSET -4.138618 -2.389435 2.389433
										CHANNELS 3 Xrotation Yrotation Zrotation
										JOINT RightHandThumb3
										{
											OFFSET -2.726974 -1.574417 1.574421
											CHANNELS 3 Xrotation Yrotation Zrotation
											JOINT RightHandThumb4
											{
												OFFSET -3.941010 -2.275345 2.275343
												CHANNELS 3 Xrotation Yrotation Zrotation
												End Site
												{
													OFFSET 0.005814 5.087799 0.009927
												}
											}
										}
									}
								}
								JOINT RightHandIndex1
								{
									OFFSET -24.424698 -1.985657 5.953444
									CHANNELS 3 Xrotation Yrotation Zrotation
									JOINT RightHandIndex2
									{
										OFFSET -6.426697 0.000000 0.000000
										CHANNELS 3 Xrotation Yrotation Zrotation
										JOINT RightHandIndex3
										{
											OFFSET -5.337898 0.000000 0.000000
											CHANNELS 3 Xrotation Yrotation Zrotation
											JOINT RightHandIndex4
											{
												OFFSET -4.409401 0.000000 0.000000
												CHANNELS 3 Xrotation Yrotation Zrotation
												End Site
												{
													OFFSET 0.000000 4.409363 0.014408
												}
											}
										}
									}
								}
								JOINT RightHandMiddle1
								{
									OFFSET -23.810097 0.000000 0.000000
									CHANNELS 3 Xrotation Yrotation Zrotation
									JOINT RightHandMiddle2
									{
										OFFSET -7.176498 0.000000 0.000000
										CHANNELS 3 Xrotation Yrotation Zrotation
										JOINT RightHandMiddle3
										{
											OFFSET -6.774902 0.000000 0.000000
											CHANNELS 3 Xrotation Yrotation Zrotation
											JOINT RightHandMiddle4
											{
												OFFSET -5.403328 0.000000 0.000000
												CHANNELS 3 Xrotation Yrotation Zrotation
												End Site
												{
													OFFSET 0.027702 5.403244 0.017457
												}
											}
										}
									}
								}
								JOINT RightHandRing1
								{
									OFFSET -22.908302 -0.839325 -6.020576
									CHANNELS 3 Xrotation Yrotation Zrotation
									JOINT RightHandRing2
									{
										OFFSET -6.337502 0.000000 0.000000
										CHANNELS 3 Xrotation Yrotation Zrotation
										JOINT RightHandRing3
										{
											OFFSET -5.779297 0.000000 0.000000
											CHANNELS 3 Xrotation Yrotation Zrotation
											JOINT RightHandRing4
											{
												OFFSET -4.965698 0.000000 0.000000
												CHANNELS 3 Xrotation Yrotation Zrotation
												End Site
												{
													OFFSET 0.000000 4.965668 0.016226
												}
											}
										}
									}
								}
								JOINT RightHandPinky1
								{
									OFFSET -20.037003 -1.530334 -10.950259
									CHANNELS 3 Xrotation Yrotation Zrotation
									JOINT RightHandPinky2
									{
										OFFSET -5.254700 0.000000 0.000000
										CHANNELS 3 Xrotation Yrotation Zrotation
										JOINT RightHandPinky3
										{
											OFFSET -4.810204 0.000000 0.000000
											CHANNELS 3 Xrotation Yrotation Zrotation
											JOINT RightHandPinky4
											{
												OFFSET -3.647202 0.000000 0.000000
												CHANNELS 3 Xrotation Yrotation Zrotation
												End Site
												{
													OFFSET 0.000000 3.647186 0.011917
												}
											}
										}
									}
								}
							}
						}
					}
				}
			}
		}
	}
	JOINT LeftUpLeg
	{
		OFFSET 15.427100 -6.655098 0.678600
		CHANNELS 3 Xrotation Yrotation Zrotation
		JOINT LeftLeg
		{
			OFFSET 4.081073 -39.591068 13.024000
			CHANNELS 3 Xrotation Yrotation Zrotation
			JOINT LeftFoot
			{
				OFFSET -4.081074 -37.707932 -15.979700
				CHANNELS 3 Xrotation Yrotation Zrotation
				JOINT LeftToeBase
				{
					OFFSET 5.346399 -15.068900 20.645000
					CHANNELS 3 Xrotation Yrotation Zrotation
					JOINT LeftToe_End
					{
						OFFSET 2.754700 0.931300 11.300900
						CHANNELS 3 Xrotation Yrotation Zrotation
						End Site
						{
							OFFSET 0.000000 11.669021 0.000000
						}
					}
				}
			}
		}
	}
	JOINT RightUpLeg
	{
		OFFSET -15.569500 -6.655098 0.678600
		CHANNELS 3 Xrotation Yrotation Zrotation
		JOINT RightLeg
		{
			OFFSET -4.081825 -39.591045 13.023800
			CHANNELS 3 Xrotation Yrotation Zrotation
			JOINT RightFoot
			{
				OFFSET 4.081824 -37.707954 -15.979600
				CHANNELS 3 Xrotation Yrotation Zrotation
				JOINT RightToeBase
				{
					OFFSET -5.346400 -15.068900 20.645000
					CHANNELS 3 Xrotation Yrotation Zrotation
					JOINT RightToe_End
					{
						OFFSET -2.754700 0.931300 11.300900
						CHANNELS 3 Xrotation Yrotation Zrotation
						End Site
						{
							OFFSET 0.000000 11.669021 0.000000
						}
					}
				}
			}
		}
	}
}
MOTION
Frames: 4
Frame Time: 0.033333
1.436955 49.159256 16.226555 -0.920313 1.077026 -1.552392 8.883086 -0.398010 -3.233894 -2.850012 -0.124797 -3.389132 -2.815190 -0.085229 -3.360939 7.635441 -0.726208 2.790940 -0.254626 1.166483 -7.315397 -0.000001 -0.000000 -0.000000 24.083851 7.166260 4.142018 51.946478 -33.931058 -26.095518 0.000000 -106.161883 -0.000001 25.460319 -6.111544 45.160009 33.451442 -53.013323 36.605470 -1.106292 18.365028 -34.261568 -13.075226 -1.680524 -3.587125 -0.000000 -0.000002 0.000000 -0.117334 0.844353 -5.825243 0.190691 1.483965 -14.643212 0.009747 0.338222 -3.302337 0.000001 -0.000002 -0.000003 1.039133 7.183392 -13.046121 0.235467 1.645815 -16.282923 0.147226 1.306451 -12.858574 -0.000002 0.000001 0.000004 2.882096 10.560333 -21.378576 0.119118 1.176597 -11.561485 0.171299 1.407801 -13.875913 -0.000001 0.000001 -0.000001 2.501285 13.038560 -26.601849 0.146785 1.304488 -12.839006 0.088779 1.017115 -9.976705 -0.000000 -0.000003 -0.000000 -9.048081 3.758333 -18.488166 -45.499087 17.604300 27.142711 0.000003 53.504191 -0.000012 -33.581554 11.090194 -5.449535 18.736688 8.022812 -2.890693 4.649595 -30.609233 10.106178 85.394959 -60.607144 46.517075 -0.000000 0.000000 0.000002 4.365104 -1.992364 89.364856 3.648972 -4.546959 77.484125 3.107142 -4.392195 70.539667 -0.000000 -0.000001 -0.000000 1.176846 -6.814462 87.976375 3.642552 -4.545549 77.403016 1.410535 -3.340740 45.771587 -0.000002 -0.000002 0.000002 -1.767753 -7.276428 92.866387 3.594594 -4.534590 76.797138 1.701184 -3.600405 50.570021 -0.000001 -0.000001 0.000001 -5.410473 -8.939134 100.481686 3.790234 -4.575941 79.260179 2.532195 -4.145069 62.827024 0.000001 -0.000001 0.000000 -87.599696 -11.653303 18.133456 80.426468 -1.613306 -2.958828 10.114348 -6.309830 -7.287376 -0.103118 0.000002 -0.000001 0.000000 -0.000001 -0.000000 -85.072007 12.319234 -14.684456 79.767737 0.134728 1.435932 9.899656 -0.509430 13.050882 -0.191619 -0.000003 -0.000000 0.000000 -0.000001 0.000000 
1.402102 49.174484 16.142887 -1.264393 1.005315 -1.335464 8.834285 -0.489265 -3.214884 -2.892612 -0.310639 -3.307903 -2.857524 -0.273437 -3.281556 7.901918 -0.773571 2.841724 -1.432146 0.810385 -6.896816 -0.000000 0.000000 -0.000001 23.655129 6.086320 4.864213 52.939280 -34.401819 -26.443892 0.000059 -106.024022 0.000035 25.160923 -5.635529 46.589226 32.929192 -52.605280 36.245533 -1.044528 18.372864 -34.123755 -12.905735 -1.347762 -3.485432 0.000003 -0.000001 -0.000003 -0.124251 0.804055 -5.903730 0.194704 1.499263 -14.797668 0.010435 0.350063 -3.418132 0.000001 0.000001 -0.000002 1.034234 7.131885 -13.163153 0.238028 1.654483 -16.371321 0.151087 1.323238 -13.026810 -0.000001 0.000001 0.000000 2.863079 10.492985 -21.445787 0.121009 1.185784 -11.653005 0.171527 1.408698 -13.884751 0.000001 -0.000000 -0.000001 2.481384 12.984991 -26.593844 0.151767 1.326145 -13.055784 0.092967 1.040577 -10.209358 0.000000 -0.000001 0.000001 -6.455089 11.625992 -17.913303 -42.670080 17.396883 19.800519 0.000003 46.763341 -0.000006 -37.661526 10.639498 -10.281164 18.673368 7.852960 -3.140832 4.612551 -30.707646 9.975897 85.215837 -60.548411 46.264447 0.000000 -0.000000 -0.000001 4.383075 -1.996652 89.389158 3.647396 -4.546613 77.464263 3.106130 -4.391830 70.526450 0.000001 -0.000001 -0.000000 1.217553 -6.817354 88.002999 3.641219 -4.545238 77.386194 1.410072 -3.340299 45.763572 0.000002 -0.000003 0.000001 -1.775220 -7.289387 92.973061 3.593874 -4.534419 76.788163 1.701011 -3.600252 50.567162 0.000001 -0.000000 -0.000001 -5.388284 -8.955128 100.571790 3.801344 -4.578031 79.399440 2.545288 -4.151745 63.007990 -0.000000 0.000002 -0.000001 -87.099604 -11.512844 18.156554 80.325982 -1.532813 -2.970118 10.091791 -6.304187 -7.376523 -0.093295 -0.000003 0.000001 -0.000000 -0.000001 -0.000000 -84.905562 12.295486 -14.705324 79.728395 0.239527 1.394612 10.031847 -0.488655 12.838320 -0.185427 0.000004 0.000003 0.000000 0.000001 0.000000 
1.330466 49.207520 16.021185 -1.606791 0.901349 -1.088701 8.835737 -0.502522 -3.169906 -2.842594 -0.378000 -3.216215 -2.807679 -0.342671 -3.190130 8.507424 -0.849816 3.010075 -2.410902 0.382065 -6.440109 -0.000000 0.000000 -0.000000 23.184959 4.276670 6.042983 53.031682 -34.756896 -28.660649 -0.000005 -105.700442 -0.000004 25.555426 -5.601065 47.557204 32.507510 -52.231461 35.956810 -0.995475 18.385819 -33.997635 -12.731739 -1.074116 -3.423298 0.000002 -0.000000 0.000000 -0.129222 0.779621 -6.040452 0.198404 1.513277 -14.939162 0.011110 0.360967 -3.524818 0.000001 0.000001 -0.000002 1.032203 7.081680 -13.325063 0.240249 1.662066 -16.448564 0.154439 1.337690 -13.171695 0.000000 0.000001 0.000000 2.848930 10.429420 -21.542415 0.122709 1.193993 -11.734988 0.171887 1.410048 -13.898402 -0.000000 0.000002 0.000000 2.472313 12.947804 -26.619604 0.156057 1.344464 -13.239587 0.096561 1.060462 -10.406561 -0.000000 0.000000 -0.000001 -3.914972 19.633838 -17.755403 -40.186637 16.365859 12.833402 0.000003 40.955529 -0.000012 -40.433395 9.734815 -15.648500 18.607331 7.715321 -3.310987 4.618182 -30.776324 9.880806 85.071099 -60.503195 46.050863 -0.000001 -0.000000 -0.000001 4.396720 -1.999577 89.403959 3.646112 -4.546331 77.447979 3.105259 -4.391522 70.515044 0.000003 0.000001 0.000000 1.249101 -6.819277 88.018647 3.640166 -4.545000 77.372779 1.409754 -3.339983 45.758077 -0.000002 0.000001 0.000001 -1.781854 -7.298529 93.047346 3.593614 -4.534358 76.784836 1.701027 -3.600267 50.567551 0.000001 -0.000001 0.000001 -5.373570 -8.965548 100.633569 3.812056 -4.580006 79.533257 2.557844 -4.158082 63.181449 -0.000000 0.000002 -0.000002 -86.550176 -11.375260 18.207541 80.148896 -1.438932 -2.976698 10.106720 -6.304585 -7.517650 -0.083503 -0.000006 -0.000000 -0.000000 0.000000 0.000000 -84.779976 12.235722 -14.674605 79.647362 0.325465 1.347994 10.219692 -0.466445 12.553282 -0.179242 0.000002 0.000005 -0.000000 -0.000001 0.000000 
1.226554 49.254181 15.870801 -1.900235 0.793313 -0.803615 8.893080 -0.428888 -3.084210 -2.696434 -0.314114 -3.083557 -2.662085 -0.279852 -3.056349 9.306876 -0.955696 3.219358 -3.243416 -0.175049 -6.034942 -0.000000 -0.000000 -0.000000 22.820958 2.537147 6.871831 52.515808 -34.737540 -31.157592 -0.000116 -105.351420 -0.000123 26.226593 -5.948176 47.929094 32.223842 -51.965428 35.737339 -0.964619 18.406603 -33.883909 -12.556196 -0.861251 -3.397258 -0.000002 0.000001 0.000003 -0.122459 0.768172 -6.222504 0.201706 1.525505 -15.062772 0.011716 0.370621 -3.619146 0.000000 -0.000001 -0.000002 1.032614 7.034914 -13.518967 0.242130 1.668440 -16.513468 0.157258 1.349641 -13.291638 0.000001 -0.000003 -0.000002 2.839449 10.371835 -21.660123 0.124200 1.201144 -11.806131 0.172276 1.411702 -13.914981 -0.000001 0.000001 0.000002 2.473287 12.926188 -26.673021 0.159546 1.359350 -13.388784 0.099577 1.076571 -10.566607 -0.000000 0.000002 0.000000 -1.483146 26.528272 -18.001701 -38.796977 14.820237 7.319575 -0.000003 36.834052 0.000003 -43.448640 9.745846 -19.283666 18.556413 7.622046 -3.362292 4.675521 -30.813111 9.828813 85.149018 -60.454920 46.037521 0.000001 -0.000001 -0.000000 4.411959 -2.005357 89.453471 3.648903 -4.546934 77.483196 3.106881 -4.392097 70.536347 0.000001 0.000002 -0.000001 1.272815 -6.823078 88.072113 3.642656 -4.545568 77.404478 1.410547 -3.340740 45.771440 -0.000002 0.000002 -0.000001 -1.788947 -7.308889 93.131726 3.596271 -4.534983 76.818475 1.702442 -3.601430 50.589917 0.000001 0.000000 -0.000000 -5.376017 -8.977279 100.711126 3.826045 -4.582565 79.708629 2.571731 -4.165065 63.372763 0.000001 0.000002 -0.000003 -86.013283 -11.223931 18.249859 79.897108 -1.325014 -2.979212 10.165578 -6.310908 -7.698853 -0.073746 0.000006 -0.000001 -0.000000 0.000000 0.000000 -84.730115 12.175992 -14.623170 79.541221 0.391801 1.298852 10.450165 -0.443165 12.222646 -0.173087 -0.000004 -0.000003 0.000000 0.000000 0.000000 
